HIERARCHY
ROOT Hips
{
	OFFSET 42.916302 -21.819614 95.866302
	CHANNELS 6 Xposition Yposition Zposition Xrotation Yrotation Zrotation
	JOINT spine
	{
		OFFSET 0.000000 -0.467661 8.132492
		CHANNELS 3 Xrotation Yrotation Zrotation
		JOINT spine1
		{
			OFFSET 0.000000 -0.000002 10.349800
			CHANNELS 3 Xrotation Yrotation Zrotation
			JOINT spine2
			{
				OFFSET 0.000000 -0.000002 9.916992
				CHANNELS 3 Xrotation Yrotation Zrotation
				JOINT Neck
				{
					OFFSET 0.000000 -1.213903 25.461006
					CHANNELS 3 Xrotation Yrotation Zrotation
					JOINT Head
					{
						OFFSET 0.000000 0.000000 7.692444
						CHANNELS 3 Xrotation Yrotation Zrotation
						End Site
						{
							OFFSET 0.000000 6.140627 18.619995
						}
					}
				}
				JOINT RightShoulder
				{
					OFFSET -4.175751 0.581444 10.709602
					CHANNELS 3 Xrotation Yrotation Zrotation
					JOINT RightArm
					{
						OFFSET 0.000000 -0.000002 14.046600
						CHANNELS 3 Xrotation Yrotation Zrotation
						JOINT RightArmRoll
						{
							OFFSET 0.000000 0.000000 7.090988
							CHANNELS 3 Xrotation Yrotation Zrotation
							JOINT RightForeArm
							{
								OFFSET 0.000000 -0.000004 20.653503
								CHANNELS 3 Xrotation Yrotation Zrotation
								JOINT RightForeArmRoll
								{
									OFFSET 0.000000 -0.000002 7.957184
									CHANNELS 3 Xrotation Yrotation Zrotation
									JOINT RightHand
									{
										OFFSET 0.000000 -0.000002 15.968307
										CHANNELS 3 Xrotation Yrotation Zrotation
										End Site
										{
											OFFSET 0.000000 0.000000 0.100006
										}
									}
								}
							}
						}
					}
				}
				JOINT LeftShoulder
				{
					OFFSET 4.175751 0.581444 10.709602
					CHANNELS 3 Xrotation Yrotation Zrotation
					JOINT LeftArm
					{
						OFFSET 0.000000 -0.000002 14.046600
						CHANNELS 3 Xrotation Yrotation Zrotation
						JOINT LeftArmRoll
						{
							OFFSET 0.000000 0.000000 7.090988
							CHANNELS 3 Xrotation Yrotation Zrotation
							JOINT LeftForeArm
							{
								OFFSET 0.000000 -0.000004 20.653503
								CHANNELS 3 Xrotation Yrotation Zrotation
								JOINT LeftForeArmRoll
								{
									OFFSET 0.000000 -0.000002 7.957184
									CHANNELS 3 Xrotation Yrotation Zrotation
									JOINT LeftHand
									{
										OFFSET 0.000000 -0.000002 15.968307
										CHANNELS 3 Xrotation Yrotation Zrotation
										End Site
										{
											OFFSET 0.000000 0.000000 0.100006
										}
									}
								}
							}
						}
					}
				}
			}
		}
	}
	JOINT RightUpLeg
	{
		OFFSET -7.208340 1.108841 -1.321823
		CHANNELS 3 Xrotation Yrotation Zrotation
		JOINT RightUpLegRoll
		{
			OFFSET 0.000000 -0.000004 18.723801
			CHANNELS 3 Xrotation Yrotation Zrotation
			JOINT RightLeg
			{
				OFFSET 0.000000 0.000004 -23.186600
				CHANNELS 3 Xrotation Yrotation Zrotation
				JOINT RightLegRoll
				{
					OFFSET 0.000000 -0.000004 23.262398
					CHANNELS 3 Xrotation Yrotation Zrotation
					JOINT RightFoot
					{
						OFFSET 0.000000 -0.000002 19.362099
						CHANNELS 3 Xrotation Yrotation Zrotation
						JOINT RightToeBase
						{
							OFFSET 0.000000 -0.000004 16.185699
							CHANNELS 3 Xrotation Yrotation Zrotation
							End Site
							{
								OFFSET 0.006859 0.903522 7.838623
							}
						}
					}
				}
			}
		}
	}
	JOINT LeftUpLeg
	{
		OFFSET 7.208340 1.108841 -1.321823
		CHANNELS 3 Xrotation Yrotation Zrotation
		JOINT LeftUpLegRoll
		{
			OFFSET 0.000000 -0.000004 18.723900
			CHANNELS 3 Xrotation Yrotation Zrotation
			JOINT LeftLeg
			{
				OFFSET 0.000000 -0.000004 23.186501
				CHANNELS 3 Xrotation Yrotation Zrotation
				JOINT LeftLegRoll
				{
					OFFSET 0.000000 -0.000004 23.477493
					CHANNELS 3 Xrotation Yrotation Zrotation
					JOINT LeftFoot
					{
						OFFSET 0.000000 -0.000002 19.147003
						CHANNELS 3 Xrotation Yrotation Zrotation
						JOINT LeftToeBase
						{
							OFFSET 0.000000 -0.000004 16.185699
							CHANNELS 3 Xrotation Yrotation Zrotation
							End Site
							{
								OFFSET -0.030746 0.903522 7.838623
							}
						}
					}
				}
			}
		}
	}
}
MOTION
Frames: 9
Frame Time: 0.041667
54.810303 -15.184019 96.792503 -0.772045 -2.779165 39.828756 -1.214810 -0.011496 0.931719 1.573700 -0.033576 1.863152 3.218420 -0.011259 1.863409 -2.534468 3.209712 6.886986 5.569484 1.117272 6.265849 -11.544211 -38.026221 -12.456865 -64.528055 -216.913380 -68.349881 0.000003 0.000012 0.000003 35.782002 5.298948 -2.420608 0.000004 -0.000002 -3.000541 -5.000211 -7.999230 0.000100 -35.252823 52.384040 42.406910 -56.121144 117.555233 43.702528 0.000001 0.000003 0.000003 0.058358 7.569257 1.235764 -0.000004 -0.000028 3.044798 -5.000211 7.998959 -0.000115 2.097289 -170.436292 7.257010 -179.999991 0.000005 -1.093998 158.206688 -2.667037 -1.171869 -0.000004 -0.000001 0.523388 73.576164 6.748817 2.199059 29.939998 -6.880772 6.365405 -3.999451 178.797933 2.615203 -0.000020 -0.000004 -0.971318 -5.728973 1.201192 0.301010 -0.000001 -0.000004 -0.032235 68.592865 -6.732366 -2.566946 25.463123 7.355622 -0.006169 
54.829498 -15.199522 96.794395 -0.771860 -2.773498 39.896846 -1.210651 -0.001883 0.935567 1.581890 -0.014326 1.870953 3.226600 0.008083 1.870989 -2.685975 3.220585 6.870867 5.699931 1.023565 6.256654 -11.567608 -37.733708 -12.469338 -64.493317 -217.094639 -68.831368 0.000004 0.000014 0.000003 34.885707 5.333994 -2.375440 0.000004 -0.000001 -3.000540 -5.000206 -7.999232 0.000103 -35.379659 52.413034 42.557717 -56.230191 117.579138 43.875216 0.000002 0.000002 0.000003 0.058367 7.596145 1.227874 -0.000003 -0.000029 3.043728 -5.000209 7.998960 -0.000117 2.063816 -170.419107 7.284903 -179.999991 0.000005 -1.094000 158.128004 -2.698076 -1.182560 -0.000003 -0.000001 0.521638 73.545496 6.749924 2.198167 29.999536 -6.873120 6.385798 -3.997606 178.800924 2.620512 -0.000020 -0.000005 -0.971478 -5.730840 1.195018 0.300876 -0.000001 -0.000005 -0.032235 68.589859 -6.733218 -2.564888 25.463123 7.355623 -0.006170 
54.852100 -15.216622 96.796890 -0.769621 -2.767391 39.966538 -1.206831 0.007880 0.939567 1.589390 0.005213 1.879067 3.234100 0.027718 1.878865 -2.845307 3.231049 6.854159 5.838918 0.927880 6.247145 -11.592780 -37.445262 -12.484917 -64.450280 -217.263564 -69.374860 0.000005 0.000012 0.000001 33.963225 5.339849 -2.327360 0.000006 -0.000001 -3.000544 -5.000211 -7.999232 0.000104 -35.512008 52.445150 42.714784 -56.343566 117.601309 44.052063 0.000001 0.000001 0.000003 0.058304 7.623087 1.219615 -0.000007 -0.000030 3.042568 -5.000206 7.998959 -0.000117 2.027258 -170.399901 7.313136 -179.999991 0.000005 -1.093999 158.046712 -2.729011 -1.192446 -0.000004 -0.000002 0.520003 73.516024 6.751024 2.197099 30.062893 -6.865234 6.403944 -3.998382 178.804913 2.626697 -0.000020 -0.000004 -0.971622 -5.733528 1.188785 0.300739 -0.000001 -0.000005 -0.032235 68.586670 -6.733806 -2.563594 25.463119 7.355621 -0.006171 
54.870403 -15.230423 96.795082 -0.765638 -2.760842 40.037818 -1.203300 0.017775 0.943697 1.596320 0.025014 1.887425 3.241021 0.047618 1.886981 -3.011212 3.241627 6.836889 5.984859 0.830048 6.237400 -11.618940 -37.160676 -12.502416 -64.397557 -217.422461 -69.971415 0.000003 0.000012 0.000002 33.021390 5.320311 -2.278186 0.000003 -0.000003 -3.000543 -5.000202 -7.999228 0.000104 -35.648827 52.480209 42.876714 -56.458064 117.622893 44.229621 -0.000002 0.000001 0.000003 0.058202 7.650115 1.211013 -0.000005 -0.000028 3.041320 -5.000212 7.998959 -0.000117 1.988016 -170.379684 7.341550 -179.999991 0.000004 -1.094001 157.962960 -2.761704 -1.203304 -0.000005 -0.000003 0.518459 73.487412 6.752080 2.196174 30.129979 -6.857099 6.419974 -4.001523 178.809913 2.633579 -0.000020 -0.000005 -0.971767 -5.736995 1.182469 0.300616 -0.000001 -0.000005 -0.032234 68.583405 -6.734097 -2.563048 25.463123 7.355622 -0.006170 
54.881802 -15.248121 96.789597 -0.760232 -2.753847 40.110573 -1.200001 0.027788 0.947910 1.602790 0.045045 1.895964 3.247492 0.067750 1.895284 -3.182432 3.252816 6.819105 6.136119 0.729911 6.227495 -11.645347 -36.879798 -12.520697 -64.333395 -217.572821 -70.610120 0.000004 0.000014 0.000003 32.066642 5.279323 -2.229507 0.000004 -0.000002 -3.000538 -5.000206 -7.999233 0.000102 -35.788972 52.517960 43.042435 -56.575324 117.643315 44.409811 -0.000000 0.000002 0.000002 0.058083 7.677246 1.202071 -0.000004 -0.000029 3.039998 -5.000211 7.998958 -0.000118 1.946475 -170.359466 7.369983 -179.999991 0.000005 -1.094002 157.877227 -2.793402 -1.213982 -0.000004 -0.000001 0.516988 73.459463 6.753171 2.195119 30.200672 -6.848728 6.434055 -4.006808 178.814913 2.641044 -0.000021 -0.000004 -0.971906 -5.741224 1.176043 0.300486 -0.000001 -0.000005 -0.032224 68.580147 -6.734111 -2.563148 25.463121 7.355625 -0.006169 
54.902100 -15.262924 96.791389 -0.753731 -2.746391 40.184882 -1.196861 0.037904 0.952181 1.608931 0.065279 1.904615 3.253634 0.088085 1.903690 -3.357717 3.265126 6.800823 6.291116 0.627310 6.217474 -11.671185 -36.602325 -12.538581 -64.257061 -217.716296 -71.281644 0.000004 0.000016 0.000002 31.105921 5.220790 -2.182705 0.000001 -0.000002 -3.000539 -5.000204 -7.999231 0.000106 -35.931802 52.558063 43.210977 -56.695184 117.662521 44.592621 -0.000000 0.000002 0.000003 0.057973 7.704505 1.192809 -0.000004 -0.000029 3.038626 -5.000211 7.998958 -0.000118 1.903070 -170.338238 7.398320 -179.999991 0.000005 -1.094998 157.789855 -2.825928 -1.225203 -0.000005 -0.000002 0.515581 73.431972 6.754285 2.193937 30.274779 -6.840145 6.446340 -4.013982 178.819899 2.648915 -0.000020 -0.000005 -0.972037 -5.746181 1.169495 0.300361 -0.000001 -0.000005 -0.032207 68.576704 -6.733856 -2.564009 25.463121 7.355622 -0.006170 
54.910603 -15.272021 96.798492 -0.746445 -2.738469 40.260738 -1.193832 0.048106 0.956481 1.614862 0.085684 1.913314 3.259556 0.108594 1.912144 -3.535806 3.279059 6.782104 6.448235 0.522090 6.207398 -11.695756 -36.328209 -12.554973 -64.168138 -217.854197 -71.976533 0.000004 0.000015 0.000002 30.145576 5.148663 -2.138808 0.000000 -0.000004 -3.000542 -5.000207 -7.999230 0.000101 -36.075779 52.600421 43.380574 -56.816065 117.681058 44.776418 -0.000000 0.000003 0.000003 0.057900 7.731927 1.183222 -0.000006 -0.000028 3.037209 -5.000209 7.998958 -0.000119 1.858172 -170.317993 7.426364 -179.999991 0.000005 -1.094999 157.701049 -2.859318 -1.236984 -0.000001 -0.000001 0.514211 73.404692 6.755382 2.192840 30.352299 -6.831339 6.456974 -4.022807 178.824912 2.657028 -0.000020 -0.000004 -0.972153 -5.751829 1.162807 0.300248 -0.000001 -0.000005 -0.032183 68.573098 -6.733414 -2.565345 25.463123 7.355622 -0.006168 
54.930901 -15.288021 96.795494 -0.738692 -2.730084 40.338018 -1.190829 0.058382 0.960765 1.620703 0.106234 1.921989 3.265398 0.129245 1.920582 -3.715461 3.295114 6.762957 6.605862 0.414091 6.197284 -11.718313 -36.057245 -12.568790 -64.065713 -217.987250 -72.683308 0.000004 0.000016 -0.000000 29.192423 5.066953 -2.098565 0.000001 -0.000002 -3.000540 -5.000205 -7.999229 0.000100 -36.220094 52.644574 43.550355 -56.937847 117.698858 44.961172 0.000003 0.000002 0.000003 0.057888 7.759529 1.173327 -0.000004 -0.000028 3.035758 -5.000210 7.998960 -0.000119 1.812207 -170.297762 7.454004 -179.999991 0.000005 -1.094998 157.611342 -2.891714 -1.247529 -0.000004 -0.000001 0.512865 73.377433 6.756520 2.191652 30.433045 -6.822304 6.466115 -4.033050 178.829912 2.665188 -0.000020 -0.000004 -0.972270 -5.758146 1.155950 0.300137 -0.000001 -0.000005 -0.032160 68.569533 -6.732725 -2.567235 25.463121 7.355619 -0.006169 
54.947102 -15.303923 96.798492 -0.730789 -2.721228 40.416698 -1.187819 0.068713 0.965006 1.626574 0.126898 1.930593 3.271261 0.150011 1.928932 -3.895413 3.313783 6.743473 6.762400 0.303161 6.187176 -11.738156 -35.789283 -12.578936 -63.950918 -218.116313 -73.389877 0.000005 0.000014 -0.000002 28.252951 4.979614 -2.062401 0.000003 -0.000002 -3.000540 -5.000204 -7.999231 0.000104 -36.363575 52.690490 43.718784 -57.062033 117.715291 45.148729 0.000001 0.000002 0.000003 0.057967 7.787336 1.163147 -0.000002 -0.000029 3.034289 -5.000210 7.998959 -0.000120 1.765560 -170.278515 7.481103 -179.999991 0.000005 -1.095001 157.520924 -2.924953 -1.259601 -0.000006 -0.000001 0.511520 73.349962 6.757670 2.190376 30.516889 -6.813068 6.473918 -4.044466 178.833914 2.673301 -0.000020 -0.000004 -0.972371 -5.765094 1.148910 0.300031 -0.000001 -0.000005 -0.032119 68.565687 -6.731834 -2.569796 25.463119 7.355621 -0.006169 
